<svg width="56" height="56" viewBox="0 0 56 56" fill="none" xmlns="http://www.w3.org/2000/svg">
<path d="M54.2347 27.2387C53.8366 16.9619 45.2966 8.75 35.0131 8.75C31.4359 8.75056 27.9294 9.74676 24.8862 11.6271C21.843 13.5074 19.3832 16.1976 17.7822 19.3966C16.4515 22.0486 15.7558 24.9738 15.75 27.9409C15.7569 28.3918 15.5932 28.8286 15.2919 29.164C14.9906 29.4994 14.5737 29.7087 14.1247 29.75C13.8846 29.7672 13.6436 29.7346 13.4166 29.6544C13.1897 29.5741 12.9818 29.4479 12.8058 29.2837C12.6299 29.1194 12.4897 28.9207 12.3941 28.6998C12.2984 28.4789 12.2494 28.2407 12.25 28C12.2482 25.5523 12.6426 23.1204 13.4181 20.7987C13.4692 20.6499 13.4792 20.49 13.4471 20.3359C13.4149 20.1819 13.3418 20.0393 13.2354 19.9233C13.1291 19.8073 12.9934 19.7222 12.8427 19.6768C12.6919 19.6315 12.5318 19.6276 12.3791 19.6656C9.3468 20.4214 6.65397 22.1686 4.72824 24.6298C2.8025 27.091 1.75426 30.125 1.75 33.25C1.75 40.9478 8.25781 47.25 15.9688 47.25H35C37.5912 47.2472 40.1552 46.7218 42.5387 45.7053C44.9222 44.6888 47.0762 43.202 48.8719 41.3338C50.6676 39.4657 52.068 37.2545 52.9894 34.8327C53.9109 32.4109 54.3344 29.828 54.2347 27.2387ZM43.2381 25.7381L32.7381 36.2381C32.5756 36.4008 32.3826 36.5299 32.1701 36.618C31.9577 36.706 31.73 36.7514 31.5 36.7514C31.27 36.7514 31.0423 36.706 30.8299 36.618C30.6174 36.5299 30.4244 36.4008 30.2619 36.2381L25.0119 30.9881C24.6835 30.6598 24.499 30.2144 24.499 29.75C24.499 29.2856 24.6835 28.8402 25.0119 28.5119C25.3402 28.1835 25.7856 27.999 26.25 27.999C26.7144 27.999 27.1598 28.1835 27.4881 28.5119L31.5 32.5259L40.7619 23.2619C40.9245 23.0993 41.1175 22.9703 41.3299 22.8823C41.5424 22.7943 41.7701 22.749 42 22.749C42.2299 22.749 42.4576 22.7943 42.6701 22.8823C42.8825 22.9703 43.0755 23.0993 43.2381 23.2619C43.4007 23.4245 43.5297 23.6175 43.6177 23.8299C43.7057 24.0424 43.751 24.2701 43.751 24.5C43.751 24.7299 43.7057 24.9576 43.6177 25.1701C43.5297 25.3825 43.4007 25.5755 43.2381 25.7381Z" fill="url(#paint0_linear_62_393)"/>
<defs>
<linearGradient id="paint0_linear_62_393" x1="27.9995" y1="8.75" x2="27.9995" y2="47.25" gradientUnits="userSpaceOnUse">
<stop stop-color="#D0D3D9"/>
<stop offset="1" stop-color="#7B7D82"/>
</linearGradient>
</defs>
</svg>
