<svg width="56" height="56" viewBox="0 0 56 56" fill="none" xmlns="http://www.w3.org/2000/svg">
<path d="M1.72668 13C1.49934 12.999 1.27406 13.0424 1.06388 13.1277C0.853703 13.2129 0.6628 13.3383 0.502219 13.4965C0.341639 13.6548 0.214572 13.8429 0.128372 14.0498C0.0421727 14.2567 -0.00144816 14.4783 3.66705e-05 14.7019V42.0944C-0.000952549 42.3177 0.0430343 42.5389 0.129456 42.7454C0.215877 42.9519 0.343022 43.1395 0.503552 43.2974C0.664083 43.4553 0.854818 43.5803 1.06475 43.6653C1.27468 43.7503 1.49965 43.7936 1.72668 43.7926H54.2733V43.8C54.5004 43.801 54.7253 43.7577 54.9353 43.6727C55.1452 43.5877 55.3359 43.4626 55.4965 43.3048C55.657 43.1469 55.7841 42.9593 55.8706 42.7528C55.957 42.5463 56.001 42.325 56 42.1017V14.7019C56.001 14.4786 55.957 14.2574 55.8706 14.0509C55.7841 13.8444 55.657 13.6568 55.4965 13.4989C55.3359 13.341 55.1452 13.216 54.9353 13.131C54.7253 13.046 54.5004 13.0027 54.2733 13.0037L1.72668 13ZM8.75657 21.8772H11.1298V32.879H17.2141V34.9154H8.75657V21.8772ZM19.763 21.8772H22.1362V34.9154H19.763V21.8772ZM24.4122 21.8772H27.0358L30.3732 32.199H30.5339L33.8452 21.8772H36.3679L31.7822 34.9154H29.0427L24.4122 21.8772ZM38.6514 21.8882H47.2322V23.8989H41.0283V27.3542H46.8959V29.2546H41.0283V32.9048H47.2322V34.9265H38.6514V21.8882Z" fill="url(#paint0_linear_62_424)"/>
<defs>
<linearGradient id="paint0_linear_62_424" x1="28" y1="13" x2="28" y2="43.8" gradientUnits="userSpaceOnUse">
<stop stop-color="#D0D3D9"/>
<stop offset="1" stop-color="#7B7D82"/>
</linearGradient>
</defs>
</svg>
