<svg width="56" height="56" viewBox="0 0 56 56" fill="none" xmlns="http://www.w3.org/2000/svg">
<path fill-rule="evenodd" clip-rule="evenodd" d="M9.73467 7.40129C7 10.1336 7 14.5343 7 23.3333V32.6666C7 41.4656 7 45.8663 9.73467 48.5986C12.467 51.3333 16.8677 51.3333 25.6667 51.3333H30.3333C39.1323 51.3333 43.533 51.3333 46.2653 48.5986C49 45.8663 49 41.4656 49 32.6666V23.3333C49 14.5343 49 10.1336 46.2653 7.40129C43.533 4.66663 39.1323 4.66663 30.3333 4.66663H25.6667C16.8677 4.66663 12.467 4.66663 9.73467 7.40129ZM18.6667 21.5833C18.2025 21.5833 17.7574 21.7677 17.4292 22.0959C17.101 22.424 16.9167 22.8692 16.9167 23.3333C16.9167 23.7974 17.101 24.2425 17.4292 24.5707C17.7574 24.8989 18.2025 25.0833 18.6667 25.0833H37.3333C37.7975 25.0833 38.2426 24.8989 38.5708 24.5707C38.899 24.2425 39.0833 23.7974 39.0833 23.3333C39.0833 22.8692 38.899 22.424 38.5708 22.0959C38.2426 21.7677 37.7975 21.5833 37.3333 21.5833H18.6667ZM18.6667 30.9166C18.2025 30.9166 17.7574 31.101 17.4292 31.4292C17.101 31.7574 16.9167 32.2025 16.9167 32.6666C16.9167 33.1308 17.101 33.5759 17.4292 33.9041C17.7574 34.2323 18.2025 34.4166 18.6667 34.4166H30.3333C30.7975 34.4166 31.2426 34.2323 31.5708 33.9041C31.899 33.5759 32.0833 33.1308 32.0833 32.6666C32.0833 32.2025 31.899 31.7574 31.5708 31.4292C31.2426 31.101 30.7975 30.9166 30.3333 30.9166H18.6667Z" fill="url(#paint0_linear_62_398)"/>
<defs>
<linearGradient id="paint0_linear_62_398" x1="28" y1="4.66663" x2="28" y2="51.3333" gradientUnits="userSpaceOnUse">
<stop stop-color="#D0D3D9"/>
<stop offset="1" stop-color="#7B7D82"/>
</linearGradient>
</defs>
</svg>
