<svg width="56" height="56" viewBox="0 0 56 56" fill="none" xmlns="http://www.w3.org/2000/svg">
<path d="M10.2086 49L6.94189 45.7333L30.8586 21.8167C30.1586 20.1833 30.0613 18.3361 30.5669 16.275C31.0724 14.2139 32.1808 12.3667 33.8919 10.7333C35.953 8.67222 38.2474 7.46667 40.7752 7.11667C43.303 6.76667 45.3641 7.38889 46.9586 8.98333C48.553 10.5778 49.1752 12.6389 48.8252 15.1667C48.4752 17.6944 47.2697 19.9889 45.2086 22.05C43.5752 23.7611 41.728 24.8694 39.6669 25.375C37.6058 25.8806 35.7586 25.7833 34.1252 25.0833L31.2086 28L48.9419 45.7333L45.6752 49L27.9419 31.3833L10.2086 49ZM17.0919 29.05L10.0919 22.05C7.99189 19.95 6.94189 17.4417 6.94189 14.525C6.94189 11.6083 7.99189 9.1 10.0919 7L24.5586 21.5833L17.0919 29.05Z" fill="url(#paint0_linear_62_367)"/>
<defs>
<linearGradient id="paint0_linear_62_367" x1="27.9419" y1="7" x2="27.9419" y2="49" gradientUnits="userSpaceOnUse">
<stop stop-color="#D0D3D9"/>
<stop offset="1" stop-color="#7B7D82"/>
</linearGradient>
</defs>
</svg>
