<svg width="56" height="56" viewBox="0 0 56 56" fill="none" xmlns="http://www.w3.org/2000/svg">
<path d="M15.435 34.2814H17.5V29.6147H23.6017V34.2814H25.6667V21.7187H23.6017V27.552H17.5V21.7187H15.435V34.2814ZM30.3333 34.2814H38.052C38.7427 34.2814 39.3338 34.0356 39.8253 33.544C40.3169 33.0525 40.5634 32.4614 40.565 31.7707V24.2317C40.565 23.5395 40.3184 22.9476 39.8253 22.456C39.3322 21.9645 38.7411 21.7187 38.052 21.7187H30.3333V34.2814ZM32.3983 32.2187V23.7814H37.7813C37.9618 23.7814 38.1267 23.856 38.276 24.0054C38.4253 24.1547 38.5 24.3196 38.5 24.5V31.5C38.5 31.6789 38.4253 31.8438 38.276 31.9947C38.1267 32.1456 37.9618 32.2202 37.7813 32.2187H32.3983ZM10.7683 44.3334C9.695 44.3334 8.799 43.974 8.08033 43.2554C7.36167 42.5367 7.00156 41.6399 7 40.565V15.435C7 14.3617 7.36011 13.4657 8.08033 12.747C8.80056 12.0284 9.69655 11.6682 10.7683 11.6667H45.2317C46.305 11.6667 47.201 12.0268 47.9197 12.747C48.6383 13.4672 48.9984 14.3632 49 15.435V40.565C49 41.6384 48.6407 42.5344 47.922 43.253C47.2033 43.9717 46.3066 44.3318 45.2317 44.3334H10.7683Z" fill="url(#paint0_linear_62_361)"/>
<defs>
<linearGradient id="paint0_linear_62_361" x1="28" y1="11.6667" x2="28" y2="44.3334" gradientUnits="userSpaceOnUse">
<stop stop-color="#D0D3D9"/>
<stop offset="1" stop-color="#7B7D82"/>
</linearGradient>
</defs>
</svg>
