<svg width="35" height="56" viewBox="0 0 35 56" fill="none" xmlns="http://www.w3.org/2000/svg">
<g clip-path="url(#clip0_62_386)">
<path d="M29.75 0H5.25C3.85761 0 2.52226 0.553123 1.53769 1.53769C0.553123 2.52226 0 3.85761 0 5.25L0 50.75C0 52.1424 0.553123 53.4777 1.53769 54.4623C2.52226 55.4469 3.85761 56 5.25 56H29.75C31.1424 56 32.4777 55.4469 33.4623 54.4623C34.4469 53.4777 35 52.1424 35 50.75V5.25C35 3.85761 34.4469 2.52226 33.4623 1.53769C32.4777 0.553123 31.1424 0 29.75 0ZM17.5 52.5C17.041 52.4997 16.5865 52.409 16.1626 52.233C15.7386 52.0571 15.3535 51.7994 15.0291 51.4746C14.374 50.8186 14.0064 49.9294 14.007 49.0023C14.0073 48.5433 14.098 48.0889 14.274 47.6649C14.4499 47.2409 14.7076 46.8558 15.0324 46.5314C15.6883 45.8764 16.5776 45.5087 17.5047 45.5093C18.4317 45.5099 19.3205 45.8788 19.9756 46.5347C20.6306 47.1907 20.9983 48.08 20.9977 49.007C20.997 49.934 20.6282 50.8228 19.9723 51.4779C19.3163 52.133 18.427 52.5006 17.5 52.5Z" fill="url(#paint0_linear_62_386)"/>
</g>
<defs>
<linearGradient id="paint0_linear_62_386" x1="17.5" y1="0" x2="17.5" y2="56" gradientUnits="userSpaceOnUse">
<stop stop-color="#D0D3D9"/>
<stop offset="1" stop-color="#7B7D82"/>
</linearGradient>
<clipPath id="clip0_62_386">
<rect width="35" height="56" fill="white"/>
</clipPath>
</defs>
</svg>
