<svg width="56" height="56" viewBox="0 0 56 56" fill="none" xmlns="http://www.w3.org/2000/svg">
<g clip-path="url(#clip0_62_375)">
<path d="M28 21C28.6189 21 29.2123 21.2458 29.6499 21.6834C30.0875 22.121 30.3334 22.7145 30.3334 23.3333V32.6667H44.3334C45.571 32.6667 46.758 33.1583 47.6332 34.0335C48.5084 34.9087 49 36.0957 49 37.3333V44.3333C49 45.571 48.5084 46.758 47.6332 47.6332C46.758 48.5083 45.571 49 44.3334 49H11.6667C10.429 49 9.24202 48.5083 8.36685 47.6332C7.49168 46.758 7.00002 45.571 7.00002 44.3333V37.3333C7.00002 36.0957 7.49168 34.9087 8.36685 34.0335C9.24202 33.1583 10.429 32.6667 11.6667 32.6667H25.6667V23.3333C25.6667 22.7145 25.9125 22.121 26.3501 21.6834C26.7877 21.2458 27.3812 21 28 21ZM15.5447 9.23767C16.0083 9.64715 16.2904 10.224 16.3289 10.8413C16.3674 11.4587 16.1592 12.0661 15.75 12.53C13.113 15.5103 11.6602 19.3539 11.6667 23.3333C11.6667 24.0263 11.7087 24.71 11.7927 25.3773C11.8539 25.9835 11.6756 26.5896 11.2959 27.0661C10.9162 27.5426 10.3652 27.8516 9.76058 27.9272C9.15601 28.0028 8.54586 27.8389 8.06053 27.4705C7.57521 27.1022 7.25321 26.5586 7.16335 25.956C7.05469 25.086 7.00014 24.2101 7.00002 23.3333C6.99351 18.2172 8.86115 13.2758 12.25 9.44301C12.4528 9.21309 12.6989 9.02539 12.9743 8.89064C13.2496 8.75588 13.5488 8.6767 13.8548 8.65763C14.1608 8.63856 14.4675 8.67998 14.7575 8.7795C15.0474 8.87903 15.3149 9.03472 15.5447 9.23767ZM43.75 9.44301C47.1389 13.2758 49.0065 18.2172 49 23.3333C49 24.22 48.944 25.095 48.8367 25.956C48.8054 26.2655 48.7126 26.5656 48.5636 26.8387C48.4147 27.1118 48.2127 27.3523 47.9694 27.5462C47.7261 27.7401 47.4466 27.8833 47.1471 27.9676C46.8477 28.0518 46.5344 28.0754 46.2257 28.0368C45.9171 27.9982 45.6193 27.8983 45.3498 27.7429C45.0803 27.5876 44.8446 27.3799 44.6565 27.1321C44.4685 26.8843 44.3319 26.6014 44.2547 26.3001C44.1776 25.9987 44.1615 25.685 44.2073 25.3773C44.289 24.71 44.3334 24.0263 44.3334 23.3333C44.3398 19.3539 42.887 15.5103 40.25 12.53C40.0473 12.3002 39.8919 12.0327 39.7926 11.7428C39.6932 11.4529 39.652 11.1463 39.6712 10.8405C39.7099 10.2228 39.9924 9.64587 40.4565 9.23651C40.6863 9.03381 40.9538 8.87836 41.2437 8.77904C41.5336 8.67972 41.8402 8.63847 42.146 8.65765C42.7637 8.69638 43.3407 8.97888 43.75 9.44301ZM22.5447 15.4093C22.7746 15.6121 22.9623 15.8582 23.0971 16.1336C23.2318 16.4089 23.311 16.7082 23.3301 17.0141C23.3491 17.3201 23.3077 17.6268 23.2082 17.9168C23.1087 18.2067 22.953 18.4742 22.75 18.704C22.0908 19.4477 21.5983 20.3239 21.3057 21.2737C21.0131 22.2235 20.9272 23.2249 21.0537 24.2107C21.1149 24.8169 20.9366 25.423 20.5569 25.8994C20.1772 26.3759 19.6262 26.685 19.0216 26.7605C18.417 26.8361 17.8069 26.6722 17.3215 26.3039C16.8362 25.9355 16.5142 25.392 16.4243 24.7893C16.2156 23.1474 16.3597 21.4799 16.847 19.8981C17.3343 18.3164 18.1536 16.8568 19.25 15.617C19.6591 15.1537 20.2353 14.8717 20.8521 14.8327C21.4689 14.7938 22.0759 15.0012 22.54 15.4093H22.5447ZM36.75 15.6147C37.8469 16.8547 38.6664 18.3146 39.1537 19.8968C39.641 21.479 39.7849 23.1471 39.5757 24.7893C39.4858 25.392 39.1638 25.9355 38.6785 26.3039C38.1932 26.6722 37.583 26.8361 36.9785 26.7605C36.3739 26.685 35.8228 26.3759 35.4431 25.8994C35.0634 25.423 34.8851 24.8169 34.9464 24.2107C35.0732 23.2251 34.9876 22.2238 34.6954 21.274C34.4032 20.3242 33.9112 19.4479 33.2524 18.704C33.0486 18.4745 32.8922 18.207 32.792 17.917C32.6918 17.6269 32.6498 17.3199 32.6684 17.0136C32.6871 16.7072 32.7659 16.4076 32.9005 16.1318C33.0351 15.856 33.2228 15.6095 33.4528 15.4063C33.6828 15.2031 33.9507 15.0474 34.241 14.9479C34.5313 14.8484 34.8384 14.8071 35.1446 14.8265C35.4509 14.8458 35.7504 14.9254 36.0258 15.0606C36.3013 15.1959 36.5474 15.3842 36.75 15.6147Z" fill="url(#paint0_linear_62_375)"/>
</g>
<defs>
<linearGradient id="paint0_linear_62_375" x1="28" y1="8.65308" x2="28" y2="49" gradientUnits="userSpaceOnUse">
<stop stop-color="#D0D3D9"/>
<stop offset="1" stop-color="#7B7D82"/>
</linearGradient>
<clipPath id="clip0_62_375">
<rect width="56" height="56" fill="white"/>
</clipPath>
</defs>
</svg>
