<svg width="21" height="20" viewBox="0 0 21 20" fill="none" xmlns="http://www.w3.org/2000/svg">
<path d="M18.0383 10.6633L12.4133 16.2883C12.2372 16.4644 11.9983 16.5633 11.7492 16.5633C11.5001 16.5633 11.2613 16.4644 11.0852 16.2883C10.909 16.1122 10.8101 15.8733 10.8101 15.6242C10.8101 15.3751 10.909 15.1363 11.0852 14.9602L15.1094 10.9375H3.625C3.37636 10.9375 3.1379 10.8387 2.96209 10.6629C2.78627 10.4871 2.6875 10.2486 2.6875 10C2.6875 9.75136 2.78627 9.5129 2.96209 9.33709C3.1379 9.16127 3.37636 9.0625 3.625 9.0625H15.1094L11.0867 5.0375C10.9106 4.86138 10.8117 4.62251 10.8117 4.37344C10.8117 4.12437 10.9106 3.88549 11.0867 3.70937C11.2628 3.53325 11.5017 3.43431 11.7508 3.43431C11.9999 3.43431 12.2387 3.53325 12.4148 3.70937L18.0398 9.33437C18.1273 9.42159 18.1966 9.52521 18.2438 9.6393C18.2911 9.75338 18.3153 9.87567 18.3152 9.99915C18.315 10.1226 18.2905 10.2449 18.243 10.3588C18.1955 10.4728 18.1259 10.5763 18.0383 10.6633Z" fill="white"/>
</svg>
