<svg width="662" height="107" viewBox="0 0 662 107" fill="none" xmlns="http://www.w3.org/2000/svg">
<path d="M347.821 104.635L330.558 78.5894L315.264 104.635H292.55L319.959 62.5382L292.247 20.7444H316.173L333.284 46.6384L348.73 20.7444H371.444L343.884 62.5382L371.746 104.635H347.821Z" fill="#ECF1F6"/>
<path d="M299.009 60.873C299.009 63.9015 298.807 66.6272 298.403 69.05H237.075C237.58 75.1071 239.7 79.8518 243.435 83.2841C247.171 86.7165 251.764 88.4326 257.215 88.4326C265.089 88.4326 270.692 85.0508 274.024 78.2871H296.889C294.466 86.3631 289.822 93.0259 282.958 98.2754C276.093 103.424 267.664 105.998 257.669 105.998C249.593 105.998 242.325 104.231 235.864 100.698C229.504 97.064 224.507 91.9659 220.873 85.4041C217.34 78.8423 215.573 71.271 215.573 62.6901C215.573 54.0083 217.34 46.3865 220.873 39.8247C224.406 33.2629 229.353 28.2154 235.713 24.6821C242.073 21.1488 249.392 19.3821 257.669 19.3821C265.645 19.3821 272.762 21.0983 279.021 24.5306C285.381 27.963 290.277 32.8591 293.709 39.219C297.242 45.478 299.009 52.696 299.009 60.873ZM277.052 54.816C276.951 49.3646 274.983 45.0237 271.146 41.7933C267.31 38.4619 262.616 36.7962 257.064 36.7962C251.814 36.7962 247.372 38.4114 243.738 41.6418C240.205 44.7713 238.035 49.1627 237.227 54.816H277.052Z" fill="#ECF1F6"/>
<path d="M193.345 38.1595V78.7418C193.345 81.5684 194.001 83.6379 195.314 84.9503C196.727 86.1617 199.049 86.7674 202.279 86.7674H212.122V104.636H198.797C180.928 104.636 171.994 95.9539 171.994 78.5904V38.1595H162V20.7454H171.994V0H193.345V20.7454H212.122V38.1595H193.345Z" fill="#ECF1F6"/>
<path d="M115.551 105.998C107.475 105.998 100.206 104.232 93.7454 100.698C87.2846 97.0642 82.1865 91.9662 78.4514 85.4044C74.8171 78.8425 73 71.2712 73 62.6904C73 54.1095 74.8676 46.5382 78.6028 39.9764C82.4389 33.4146 87.6379 28.367 94.1997 24.8337C100.762 21.1995 108.08 19.3824 116.157 19.3824C124.233 19.3824 131.552 21.1995 138.113 24.8337C144.675 28.367 149.824 33.4146 153.559 39.9764C157.395 46.5382 159.313 54.1095 159.313 62.6904C159.313 71.2712 157.345 78.8425 153.407 85.4044C149.571 91.9662 144.322 97.0642 137.659 100.698C131.097 104.232 123.728 105.998 115.551 105.998ZM115.551 87.5243C119.387 87.5243 122.971 86.6158 126.302 84.7987C129.734 82.8806 132.46 80.054 134.479 76.3188C136.498 72.5836 137.508 68.0408 137.508 62.6904C137.508 54.7152 135.388 48.6077 131.148 44.3678C127.009 40.0269 121.911 37.8564 115.854 37.8564C109.797 37.8564 104.699 40.0269 100.56 44.3678C96.5216 48.6077 94.5026 54.7152 94.5026 62.6904C94.5026 70.6655 96.4711 76.8235 100.408 81.1644C104.446 85.4044 109.494 87.5243 115.551 87.5243Z" fill="#ECF1F6"/>
<path d="M36.6452 105.998C29.7806 105.998 23.6225 104.787 18.1712 102.364C12.7198 99.8404 8.37893 96.4585 5.1485 92.2186C2.01902 87.9786 0.302853 83.2844 0 78.1359H21.3511C21.7549 81.3663 23.3197 84.0415 26.0454 86.1615C28.872 88.2815 32.3548 89.3414 36.4938 89.3414C40.5318 89.3414 43.6613 88.5338 45.8822 86.9186C48.2041 85.3034 49.365 83.2339 49.365 80.7101C49.365 77.9845 47.9517 75.9654 45.1251 74.6531C42.3994 73.2398 38.0081 71.7255 31.951 70.1103C25.692 68.596 20.5435 67.0313 16.5055 65.4161C12.5684 63.8008 9.13607 61.3275 6.20849 57.9962C3.38186 54.6648 1.96855 50.1724 1.96855 44.5192C1.96855 39.8754 3.28091 35.6355 5.90563 31.7994C8.63131 27.9632 12.4675 24.9347 17.4141 22.7138C22.4616 20.4928 28.3672 19.3824 35.131 19.3824C45.1251 19.3824 53.1002 21.9062 59.0563 26.9537C65.0125 31.9003 68.2934 38.6136 68.8991 47.0934H48.6079C48.3051 43.7621 46.8918 41.1373 44.368 39.2193C41.9452 37.2002 38.6642 36.1907 34.5253 36.1907C30.6891 36.1907 27.7111 36.8974 25.5911 38.3107C23.5721 39.724 22.5626 41.6926 22.5626 44.2163C22.5626 47.043 23.9759 49.2134 26.8025 50.7277C29.6291 52.141 34.0205 53.6048 39.9766 55.119C46.0337 56.6333 51.0307 58.1981 54.9678 59.8133C58.9049 61.4285 62.2868 63.9523 65.1134 67.3846C68.041 70.716 69.5553 75.1578 69.6562 80.7101C69.6562 85.5558 68.2934 89.8967 65.5677 93.7328C62.943 97.569 59.1068 100.597 54.0593 102.818C49.1127 104.938 43.308 105.998 36.6452 105.998Z" fill="#ECF1F6"/>
<path d="M578.186 106.909H632.508L602.322 64.9548L625.048 32.5535H631.76L609.034 64.9548L639.22 106.909H662L631.864 64.9548L660 21.0002H607.678L579.542 64.9548L602.268 95.356H595.556L572.83 64.9548L600.966 21.0002H578.186L550 64.9548L578.186 106.909Z" fill="#AD01FD"/>
<path d="M539.88 104.896H517.6L545.6 65.0561L517 20.6561H539.88L556.8 46.0961L568.2 65.1361L539.88 104.896Z" fill="#AD01FD"/>
<path d="M480.88 106.736C472.96 106.736 465.68 104.896 459.04 101.216C452.48 97.5362 447.24 92.4162 443.32 85.8562C439.48 79.2162 437.56 71.7762 437.56 63.5362C437.56 55.2962 439.48 47.8962 443.32 41.3362C447.24 34.7762 452.48 29.6562 459.04 25.9762C465.68 22.2962 472.96 20.4562 480.88 20.4562C488.8 20.4562 496.04 22.2962 502.6 25.9762C509.24 29.6562 514.44 34.7762 518.2 41.3362C522.04 47.8962 523.96 55.2962 523.96 63.5362C523.96 71.7762 522.04 79.2162 518.2 85.8562C514.36 92.4162 509.16 97.5362 502.6 101.216C496.04 104.896 488.8 106.736 480.88 106.736ZM480.88 88.0162C487.6 88.0162 492.96 85.7762 496.96 81.2962C501.04 76.8162 503.08 70.8962 503.08 63.5362C503.08 56.0962 501.04 50.1762 496.96 45.7762C492.96 41.2962 487.6 39.0562 480.88 39.0562C474.08 39.0562 468.64 41.2562 464.56 45.6562C460.56 50.0562 458.56 56.0162 458.56 63.5362C458.56 70.9762 460.56 76.9362 464.56 81.4162C468.64 85.8162 474.08 88.0162 480.88 88.0162Z" fill="#8F1EFF"/>
<path fill-rule="evenodd" clip-rule="evenodd" d="M440.086 31.0118C438.992 29.3586 437.616 27.8667 435.96 26.5361C431.16 22.6161 424.48 20.6561 415.92 20.6561H378V104.896H417.24C426.04 104.896 432.88 102.856 437.76 98.7761C438.882 97.8351 439.877 96.8205 440.745 95.7321C439.181 93.8008 437.742 91.7334 436.427 89.5299C431.849 81.6031 429.56 72.7214 429.56 62.8846C429.56 62.53 429.563 62.1767 429.569 61.8248C429.381 61.7797 429.191 61.7369 429 61.6961C429.193 61.6388 429.385 61.5795 429.575 61.5182C429.778 52.228 432.062 43.8494 436.427 36.3825C437.555 34.4921 438.774 32.7018 440.086 31.0118ZM411.96 54.7361H398.52V37.0961H411.96C415.32 37.0961 417.88 37.8561 419.64 39.3761C421.48 40.8961 422.4 43.0961 422.4 45.9761C422.4 48.8561 421.48 51.0561 419.64 52.5761C417.88 54.0161 415.32 54.7361 411.96 54.7361ZM421.56 86.0561C419.72 87.5761 417.08 88.3361 413.64 88.3361H398.52V69.7361H413.4C416.84 69.7361 419.52 70.5761 421.44 72.2561C423.44 73.9361 424.44 76.2561 424.44 79.2161C424.44 82.1761 423.48 84.4561 421.56 86.0561Z" fill="#0E6EFF"/>
</svg>
