<svg width="122" height="32" viewBox="0 0 122 32" fill="none" xmlns="http://www.w3.org/2000/svg">
<path d="M0 7.68992V23.0507L16.3636 15.3608L28.326 20.9708V23.5277L16.3636 17.9177L0 25.6076V32L16.3636 24.3292L32.7273 32V16.6392L16.3636 8.9684L4.40125 14.5784V12.0215L16.3636 6.41145L32.7273 14.0823V7.68992L16.3636 0L0 7.68992Z" fill="#EF4F27"/>
<path d="M114.723 28.3624C114.697 28.1393 114.594 27.9665 114.412 27.844C114.229 27.7199 114 27.6579 113.724 27.6579C113.526 27.6579 113.354 27.6893 113.21 27.7521C113.065 27.8134 112.953 27.8982 112.873 28.0066C112.794 28.1134 112.755 28.2351 112.755 28.3718C112.755 28.4865 112.782 28.5854 112.835 28.6687C112.89 28.7519 112.962 28.8218 113.05 28.8784C113.139 28.9333 113.235 28.9797 113.337 29.0174C113.439 29.0535 113.537 29.0833 113.632 29.1069L114.103 29.2294C114.257 29.2671 114.415 29.3182 114.576 29.3826C114.738 29.447 114.888 29.5318 115.026 29.637C115.165 29.7423 115.276 29.8726 115.361 30.0281C115.447 30.1837 115.491 30.3698 115.491 30.5865C115.491 30.8599 115.42 31.1025 115.279 31.3146C115.139 31.5266 114.935 31.6939 114.668 31.8164C114.403 31.939 114.082 32.0002 113.705 32.0002C113.343 32.0002 113.031 31.9429 112.767 31.8282C112.503 31.7136 112.297 31.551 112.147 31.3405C111.998 31.1285 111.916 30.8771 111.9 30.5865H112.63C112.644 30.7609 112.701 30.9062 112.8 31.0224C112.9 31.1371 113.028 31.2227 113.184 31.2792C113.341 31.3342 113.513 31.3617 113.7 31.3617C113.906 31.3617 114.089 31.3295 114.249 31.2651C114.411 31.1991 114.538 31.108 114.631 30.9918C114.723 30.874 114.77 30.7366 114.77 30.5795C114.77 30.4365 114.729 30.3195 114.647 30.2284C114.567 30.1373 114.458 30.0619 114.32 30.0022C114.183 29.9425 114.028 29.8899 113.855 29.8444L113.285 29.6889C112.899 29.5836 112.593 29.4289 112.366 29.2247C112.142 29.0205 112.029 28.7503 112.029 28.4142C112.029 28.1362 112.105 27.8935 112.256 27.6862C112.406 27.4788 112.611 27.3178 112.868 27.2032C113.126 27.0869 113.416 27.0288 113.74 27.0288C114.067 27.0288 114.355 27.0861 114.605 27.2008C114.856 27.3155 115.054 27.4733 115.198 27.6744C115.343 27.8739 115.418 28.1032 115.425 28.3624H114.723Z" fill="white" fill-opacity="0.7"/>
<path d="M109.701 27.0947V31.9201H109.032L106.579 28.3812H106.535V31.9201H105.807V27.0947H106.48L108.936 30.6383H108.98V27.0947H109.701Z" fill="white" fill-opacity="0.7"/>
<path d="M103.573 29.5074C103.573 30.0227 103.478 30.4656 103.29 30.8363C103.101 31.2054 102.843 31.4897 102.515 31.6892C102.188 31.8871 101.817 31.9861 101.4 31.9861C100.982 31.9861 100.609 31.8871 100.281 31.6892C99.9544 31.4897 99.6968 31.2046 99.5083 30.8339C99.3198 30.4632 99.2256 30.0211 99.2256 29.5074C99.2256 28.9922 99.3198 28.5501 99.5083 28.181C99.6968 27.8103 99.9544 27.5259 100.281 27.328C100.609 27.1286 100.982 27.0288 101.4 27.0288C101.817 27.0288 102.188 27.1286 102.515 27.328C102.843 27.5259 103.101 27.8103 103.29 28.181C103.478 28.5501 103.573 28.9922 103.573 29.5074ZM102.852 29.5074C102.852 29.1148 102.788 28.7841 102.661 28.5155C102.535 28.2454 102.362 28.0412 102.142 27.9029C101.924 27.7631 101.677 27.6932 101.4 27.6932C101.122 27.6932 100.874 27.7631 100.656 27.9029C100.437 28.0412 100.265 28.2454 100.137 28.5155C100.012 28.7841 99.9489 29.1148 99.9489 29.5074C99.9489 29.9001 100.012 30.2316 100.137 30.5017C100.265 30.7703 100.437 30.9745 100.656 31.1143C100.874 31.2525 101.122 31.3217 101.4 31.3217C101.677 31.3217 101.924 31.2525 102.142 31.1143C102.362 30.9745 102.535 30.7703 102.661 30.5017C102.788 30.2316 102.852 29.9001 102.852 29.5074Z" fill="white" fill-opacity="0.7"/>
<path d="M96.9937 27.0947V31.9201H96.2656V27.0947H96.9937Z" fill="white" fill-opacity="0.7"/>
<path d="M90.3789 27.7215V27.0947H94.1134V27.7215H92.6078V31.9201H91.8821V27.7215H90.3789Z" fill="white" fill-opacity="0.7"/>
<path d="M87.5014 27.0947H88.2318V30.2684C88.2318 30.6061 88.1525 30.9054 87.9939 31.1661C87.8352 31.4253 87.6122 31.6295 87.3247 31.7787C87.0373 31.9263 86.7004 32.0002 86.314 32.0002C85.9291 32.0002 85.593 31.9263 85.3055 31.7787C85.0181 31.6295 84.7951 31.4253 84.6364 31.1661C84.4778 30.9054 84.3984 30.6061 84.3984 30.2684V27.0947H85.1265V30.2095C85.1265 30.4278 85.1744 30.6218 85.2702 30.7915C85.3676 30.9611 85.505 31.0946 85.6825 31.192C85.86 31.2878 86.0705 31.3357 86.314 31.3357C86.559 31.3357 86.7703 31.2878 86.9478 31.192C87.1268 31.0946 87.2635 30.9611 87.3577 30.7915C87.4535 30.6218 87.5014 30.4278 87.5014 30.2095V27.0947Z" fill="white" fill-opacity="0.7"/>
<path d="M79.3262 31.9201V27.0947H80.0542V31.2933H82.2407V31.9201H79.3262Z" fill="white" fill-opacity="0.7"/>
<path d="M77.0912 29.5074C77.0912 30.0227 76.9969 30.4656 76.8084 30.8363C76.62 31.2054 76.3616 31.4897 76.0333 31.6892C75.7066 31.8871 75.3351 31.9861 74.9188 31.9861C74.501 31.9861 74.128 31.8871 73.7997 31.6892C73.473 31.4897 73.2154 31.2046 73.0269 30.8339C72.8384 30.4632 72.7441 30.0211 72.7441 29.5074C72.7441 28.9922 72.8384 28.5501 73.0269 28.181C73.2154 27.8103 73.473 27.5259 73.7997 27.328C74.128 27.1286 74.501 27.0288 74.9188 27.0288C75.3351 27.0288 75.7066 27.1286 76.0333 27.328C76.3616 27.5259 76.62 27.8103 76.8084 28.181C76.9969 28.5501 77.0912 28.9922 77.0912 29.5074ZM76.3702 29.5074C76.3702 29.1148 76.3066 28.7841 76.1794 28.5155C76.0537 28.2454 75.8809 28.0412 75.661 27.9029C75.4427 27.7631 75.1953 27.6932 74.9188 27.6932C74.6408 27.6932 74.3926 27.7631 74.1743 27.9029C73.956 28.0412 73.7832 28.2454 73.656 28.5155C73.5303 28.7841 73.4675 29.1148 73.4675 29.5074C73.4675 29.9001 73.5303 30.2316 73.656 30.5017C73.7832 30.7703 73.956 30.9745 74.1743 31.1143C74.3926 31.2525 74.6408 31.3217 74.9188 31.3217C75.1953 31.3217 75.4427 31.2525 75.661 31.1143C75.8809 30.9745 76.0537 30.7703 76.1794 30.5017C76.3066 30.2316 76.3702 29.9001 76.3702 29.5074Z" fill="white" fill-opacity="0.7"/>
<path d="M69.9349 28.3624C69.9098 28.1393 69.8061 27.9665 69.6239 27.844C69.4417 27.7199 69.2124 27.6579 68.9359 27.6579C68.738 27.6579 68.5668 27.6893 68.4223 27.7521C68.2778 27.8134 68.1655 27.8982 68.0854 28.0066C68.0068 28.1134 67.9676 28.2351 67.9676 28.3718C67.9676 28.4865 67.9943 28.5854 68.0477 28.6687C68.1027 28.7519 68.1741 28.8218 68.2621 28.8784C68.3516 28.9333 68.4474 28.9797 68.5495 29.0174C68.6516 29.0535 68.7498 29.0833 68.8441 29.1069L69.3153 29.2294C69.4692 29.2671 69.6271 29.3182 69.7889 29.3826C69.9506 29.447 70.1006 29.5318 70.2389 29.637C70.3771 29.7423 70.4886 29.8726 70.5734 30.0281C70.6598 30.1837 70.703 30.3698 70.703 30.5865C70.703 30.8599 70.6323 31.1025 70.491 31.3146C70.3512 31.5266 70.1478 31.6939 69.8807 31.8164C69.6153 31.939 69.2941 32.0002 68.9171 32.0002C68.5558 32.0002 68.2432 31.9429 67.9794 31.8282C67.7155 31.7136 67.5089 31.551 67.3597 31.3405C67.2105 31.1285 67.128 30.8771 67.1123 30.5865H67.8427C67.8568 30.7609 67.9134 30.9062 68.0123 31.0224C68.1129 31.1371 68.2409 31.2227 68.3964 31.2792C68.5535 31.3342 68.7255 31.3617 68.9124 31.3617C69.1181 31.3617 69.3011 31.3295 69.4614 31.2651C69.6231 31.1991 69.7504 31.108 69.843 30.9918C69.9357 30.874 69.9821 30.7366 69.9821 30.5795C69.9821 30.4365 69.9412 30.3195 69.8595 30.2284C69.7794 30.1373 69.6703 30.0619 69.532 30.0022C69.3954 29.9425 69.2407 29.8899 69.0679 29.8444L68.4977 29.6889C68.1113 29.5836 67.805 29.4289 67.5788 29.2247C67.3542 29.0205 67.2419 28.7503 67.2419 28.4142C67.2419 28.1362 67.3173 27.8935 67.4681 27.6862C67.6189 27.4788 67.8231 27.3178 68.0807 27.2032C68.3383 27.0869 68.6289 27.0288 68.9524 27.0288C69.2791 27.0288 69.5674 27.0861 69.8171 27.2008C70.0684 27.3155 70.2664 27.4733 70.4109 27.6744C70.5554 27.8739 70.6308 28.1032 70.6371 28.3624H69.9349Z" fill="white" fill-opacity="0.7"/>
<rect x="40.3667" y="31.3896" width="24.8806" height="0.597135" fill="white" fill-opacity="0.7"/>
<rect x="116.866" y="31.3892" width="4.71073" height="0.597135" fill="white" fill-opacity="0.7"/>
<path d="M116.765 23.8357L113.312 18.6266L110.253 23.8357H105.71L111.192 15.4164L105.65 7.05762H110.435L113.857 12.2364L116.946 7.05762H121.489L115.977 15.4164L121.55 23.8357H116.765Z" fill="white"/>
<path d="M104.402 15.0838C104.402 15.6896 104.362 16.2347 104.281 16.7193H92.0154C92.1163 17.9307 92.5403 18.8796 93.2874 19.5661C94.0344 20.2526 94.9531 20.5958 96.0433 20.5958C97.6182 20.5958 98.7387 19.9194 99.405 18.5667H103.978C103.494 20.1819 102.565 21.5144 101.192 22.5643C99.8189 23.594 98.133 24.1089 96.1342 24.1089C94.519 24.1089 93.0653 23.7556 91.7731 23.0489C90.5011 22.3221 89.5017 21.3024 88.7748 19.9901C88.0682 18.6777 87.7148 17.1634 87.7148 15.4473C87.7148 13.7109 88.0682 12.1865 88.7748 10.8742C89.4815 9.56181 90.4708 8.55229 91.7428 7.84563C93.0148 7.13897 94.4786 6.78564 96.1342 6.78564C97.7292 6.78564 99.1526 7.12888 100.404 7.81535C101.676 8.50182 102.656 9.48104 103.342 10.753C104.049 12.0048 104.402 13.4484 104.402 15.0838ZM100.011 13.8724C99.9905 12.7822 99.5968 11.914 98.8296 11.2679C98.0624 10.6016 97.1235 10.2685 96.013 10.2685C94.9631 10.2685 94.0748 10.5915 93.3479 11.2376C92.6413 11.8635 92.2072 12.7418 92.0457 13.8724H100.011Z" fill="white"/>
<path d="M82.0005 10.5411V18.6576C82.0005 19.2229 82.1318 19.6368 82.3942 19.8993C82.6769 20.1416 83.1413 20.2627 83.7874 20.2627H85.7559V23.8364H83.0908C79.5171 23.8364 77.7303 22.1 77.7303 18.6273V10.5411H75.7314V7.05828H77.7303V2.90918H82.0005V7.05828H85.7559V10.5411H82.0005Z" fill="white"/>
<path d="M65.2016 24.1089C63.5864 24.1089 62.1327 23.7556 60.8405 23.0489C59.5483 22.3221 58.5287 21.3024 57.7817 19.9901C57.0548 18.6777 56.6914 17.1634 56.6914 15.4473C56.6914 13.7311 57.0649 12.2168 57.812 10.9045C58.5792 9.59209 59.619 8.58258 60.9314 7.87592C62.2437 7.14907 63.7075 6.78564 65.3227 6.78564C66.938 6.78564 68.4018 7.14907 69.7141 7.87592C71.0265 8.58258 72.0562 9.59209 72.8032 10.9045C73.5705 12.2168 73.9541 13.7311 73.9541 15.4473C73.9541 17.1634 73.5604 18.6777 72.7729 19.9901C72.0057 21.3024 70.9558 22.3221 69.6233 23.0489C68.3109 23.7556 66.837 24.1089 65.2016 24.1089ZM65.2016 20.4141C65.9688 20.4141 66.6856 20.2324 67.3519 19.8689C68.0383 19.4853 68.5835 18.92 68.9873 18.173C69.3911 17.4259 69.593 16.5174 69.593 15.4473C69.593 13.8522 69.169 12.6307 68.321 11.7827C67.4932 10.9146 66.4736 10.4805 65.2622 10.4805C64.0508 10.4805 63.0311 10.9146 62.2033 11.7827C61.3957 12.6307 60.9919 13.8522 60.9919 15.4473C60.9919 17.0423 61.3856 18.2739 62.1731 19.1421C62.9807 19.9901 63.9902 20.4141 65.2016 20.4141Z" fill="white"/>
<path d="M47.6689 24.1089C46.296 24.1089 45.0644 23.8666 43.9741 23.382C42.8838 22.8773 42.0156 22.2009 41.3695 21.3529C40.7436 20.5049 40.4004 19.5661 40.3398 18.5364H44.6101C44.6908 19.1825 45.0038 19.7175 45.5489 20.1415C46.1143 20.5655 46.8108 20.7775 47.6386 20.7775C48.4462 20.7775 49.0721 20.616 49.5163 20.2929C49.9807 19.9699 50.2129 19.556 50.2129 19.0512C50.2129 18.5061 49.9302 18.1023 49.3649 17.8398C48.8198 17.5572 47.9415 17.2543 46.7301 16.9313C45.4783 16.6284 44.4486 16.3154 43.641 15.9924C42.8535 15.6694 42.1671 15.1747 41.5815 14.5084C41.0162 13.8421 40.7336 12.9437 40.7336 11.813C40.7336 10.8843 40.996 10.0363 41.521 9.26905C42.0661 8.50182 42.8333 7.89611 43.8227 7.45192C44.8322 7.00774 46.0133 6.78564 47.3661 6.78564C49.3649 6.78564 50.9599 7.2904 52.1511 8.29991C53.3424 9.28924 53.9986 10.6319 54.1197 12.3279H50.0615C50.0009 11.6616 49.7182 11.1366 49.2135 10.753C48.7289 10.3492 48.0727 10.1473 47.2449 10.1473C46.4777 10.1473 45.8821 10.2887 45.4581 10.5713C45.0543 10.854 44.8524 11.2477 44.8524 11.7524C44.8524 12.3178 45.135 12.7519 45.7004 13.0547C46.2657 13.3374 47.144 13.6301 48.3352 13.933C49.5466 14.2359 50.546 14.5488 51.3334 14.8718C52.1209 15.1949 52.7972 15.6996 53.3626 16.3861C53.9481 17.0524 54.2509 17.9408 54.2711 19.0512C54.2711 20.0204 53.9986 20.8885 53.4534 21.6558C52.9285 22.423 52.1612 23.0287 51.1517 23.4729C50.1624 23.8969 49.0015 24.1089 47.6689 24.1089Z" fill="white"/>
</svg>
