<svg width="25" height="24" viewBox="0 0 25 24" fill="none" xmlns="http://www.w3.org/2000/svg">
<path fill-rule="evenodd" clip-rule="evenodd" d="M12.5 21C13.6819 21 14.8522 20.7672 15.9442 20.3149C17.0361 19.8626 18.0282 19.1997 18.864 18.364C19.6997 17.5282 20.3626 16.5361 20.8149 15.4442C21.2672 14.3522 21.5 13.1819 21.5 12C21.5 10.8181 21.2672 9.64778 20.8149 8.55585C20.3626 7.46392 19.6997 6.47177 18.864 5.63604C18.0282 4.80031 17.0361 4.13738 15.9442 3.68508C14.8522 3.23279 13.6819 3 12.5 3C10.1131 3 7.82387 3.94821 6.13604 5.63604C4.44821 7.32387 3.5 9.61305 3.5 12C3.5 14.3869 4.44821 16.6761 6.13604 18.364C7.82387 20.0518 10.1131 21 12.5 21ZM12.268 15.64L17.268 9.64L15.732 8.36L11.432 13.519L9.207 11.293L7.793 12.707L10.793 15.707L11.567 16.481L12.268 15.64Z" fill="white"/>
</svg>
